<?xml version="1.0" encoding="UTF-8" standalone="no"?>
<!DOCTYPE svg PUBLIC "-//W3C//DTD SVG 1.1//EN"
 "http://www.w3.org/Graphics/SVG/1.1/DTD/svg11.dtd">
<!-- Generated by graphviz version 2.44.1 (20200629.0846)
 -->
<!-- Title: g Pages: 1 -->
<svg width="528pt" height="693pt"
 viewBox="0.00 0.00 528.11 693.00" xmlns="http://www.w3.org/2000/svg" xmlns:xlink="http://www.w3.org/1999/xlink">
<g id="graph0" class="graph" transform="scale(1 1) rotate(0) translate(4 689)">
<title>g</title>
<polygon fill="white" stroke="transparent" points="-4,4 -4,-689 524.11,-689 524.11,4 -4,4"/>
<g id="clust1" class="cluster">
<title>cluster_1322970774</title>
<polygon fill="#ececec" stroke="black" points="8,-471 8,-630 174.23,-630 174.23,-471 8,-471"/>
<text text-anchor="middle" x="39.71" y="-613.4" font-family="Times New Roman,serif" font-size="14.00">example</text>
</g>
<g id="clust2" class="cluster">
<title>cluster_129515983</title>
<polygon fill="#d8d8d8" stroke="black" points="16,-479 16,-597 166.23,-597 166.23,-479 16,-479"/>
<text text-anchor="middle" x="38.77" y="-580.4" font-family="Times New Roman,serif" font-size="14.00">task8</text>
</g>
<g id="clust3" class="cluster">
<title>cluster_1534274526</title>
<polygon fill="white" stroke="black" points="24,-487 24,-564 158.23,-564 158.23,-487 24,-487"/>
<text text-anchor="middle" x="76.32" y="-547.4" font-family="Times New Roman,serif" font-size="14.00">HelloController</text>
</g>
<g id="clust4" class="cluster">
<title>cluster_1762961381</title>
<polygon fill="#ececec" stroke="black" points="191.23,-559 191.23,-677 312.49,-677 312.49,-559 191.23,-559"/>
<text text-anchor="middle" x="227.21" y="-660.4" font-family="Times New Roman,serif" font-size="14.00">Decorator</text>
</g>
<g id="clust5" class="cluster">
<title>cluster_2107044470</title>
<polygon fill="white" stroke="black" points="199.23,-567 199.23,-644 304.49,-644 304.49,-567 199.23,-567"/>
<text text-anchor="middle" x="248.04" y="-627.4" font-family="Times New Roman,serif" font-size="14.00">TreeDecorator</text>
</g>
<g id="clust6" class="cluster">
<title>cluster_1984932214</title>
<polygon fill="#ececec" stroke="black" points="182.23,-8 182.23,-551 512.11,-551 512.11,-8 182.23,-8"/>
<text text-anchor="middle" x="211.23" y="-534.4" font-family="Times New Roman,serif" font-size="14.00">Models</text>
</g>
<g id="clust11" class="cluster">
<title>cluster_642004484</title>
<polygon fill="white" stroke="black" points="190.23,-441 190.23,-518 314.49,-518 314.49,-441 190.23,-441"/>
<text text-anchor="middle" x="252.66" y="-501.4" font-family="Times New Roman,serif" font-size="14.00">ChristmasTreeImpl</text>
</g>
<g id="clust9" class="cluster">
<title>cluster_289833807</title>
<polygon fill="white" stroke="black" points="199.23,-356 199.23,-433 504.11,-433 504.11,-356 199.23,-356"/>
<text text-anchor="middle" x="230.56" y="-416.4" font-family="Times New Roman,serif" font-size="14.00">Mishura</text>
</g>
<g id="clust7" class="cluster">
<title>cluster_1274905136</title>
<polygon fill="white" stroke="black" points="199.23,-271 199.23,-348 491.77,-348 491.77,-271 199.23,-271"/>
<text text-anchor="middle" x="221.62" y="-331.4" font-family="Times New Roman,serif" font-size="14.00">Balls</text>
</g>
<g id="clust12" class="cluster">
<title>cluster_741044681</title>
<polygon fill="white" stroke="black" points="199.23,-186 199.23,-263 304.49,-263 304.49,-186 199.23,-186"/>
<text text-anchor="middle" x="228.61" y="-246.4" font-family="Times New Roman,serif" font-size="14.00">Girland</text>
</g>
<g id="clust8" class="cluster">
<title>cluster_1287527594</title>
<polygon fill="white" stroke="black" points="199.23,-101 199.23,-178 304.49,-178 304.49,-101 199.23,-101"/>
<text text-anchor="middle" x="218.51" y="-161.4" font-family="Times New Roman,serif" font-size="14.00">Star</text>
</g>
<g id="clust10" class="cluster">
<title>cluster_334846492</title>
<polygon fill="white" stroke="black" points="199.23,-16 199.23,-93 304.49,-93 304.49,-16 199.23,-16"/>
<text text-anchor="middle" x="230.56" y="-76.4" font-family="Times New Roman,serif" font-size="14.00">Presents</text>
</g>
<!-- HelloController537999326XXXinitialize668655597 -->
<g id="node1" class="node">
<title>HelloController537999326XXXinitialize668655597</title>
<g id="a_node1"><a xlink:title="HelloController&#10;&#10;null">
<ellipse fill="white" stroke="black" stroke-width="4" cx="91.12" cy="-513" rx="59.23" ry="18"/>
<text text-anchor="middle" x="91.12" y="-508.8" font-family="Times New Roman,serif" font-size="14.00" fill="darkgreen">+ initialize()</text>
</a>
</g>
</g>
<!-- TreeDecorator1762961381XXXdraw2480008 -->
<g id="node2" class="node">
<title>TreeDecorator1762961381XXXdraw2480008</title>
<g id="a_node2"><a xlink:title="TreeDecorator&#10;&#10;null">
<ellipse fill="white" stroke="black" cx="251.86" cy="-593" rx="44.75" ry="18"/>
<text text-anchor="middle" x="251.86" y="-588.8" font-family="Times New Roman,serif" font-size="14.00" fill="darkgreen">+ draw()</text>
</a>
</g>
</g>
<!-- HelloController537999326XXXinitialize668655597&#45;&gt;TreeDecorator1762961381XXXdraw2480008 -->
<g id="edge5" class="edge">
<title>HelloController537999326XXXinitialize668655597&#45;&gt;TreeDecorator1762961381XXXdraw2480008</title>
<path fill="none" stroke="black" d="M122.72,-528.42C148.87,-541.6 186.54,-560.59 214.27,-574.56"/>
<polygon fill="black" stroke="black" points="212.76,-577.72 223.27,-579.09 215.91,-571.47 212.76,-577.72"/>
</g>
<!-- ChristmasTreeImpl1984932214XXXdraw2480008 -->
<g id="node9" class="node">
<title>ChristmasTreeImpl1984932214XXXdraw2480008</title>
<g id="a_node9"><a xlink:title="ChristmasTreeImpl&#10;&#10;null">
<ellipse fill="white" stroke="black" cx="251.86" cy="-467" rx="44.75" ry="18"/>
<text text-anchor="middle" x="251.86" y="-462.8" font-family="Times New Roman,serif" font-size="14.00" fill="darkgreen">+ draw()</text>
</a>
</g>
</g>
<!-- HelloController537999326XXXinitialize668655597&#45;&gt;ChristmasTreeImpl1984932214XXXdraw2480008 -->
<g id="edge4" class="edge">
<title>HelloController537999326XXXinitialize668655597&#45;&gt;ChristmasTreeImpl1984932214XXXdraw2480008</title>
<path fill="none" stroke="black" d="M134.66,-500.67C156.48,-494.35 183.07,-486.64 205.31,-480.2"/>
<polygon fill="black" stroke="black" points="206.56,-483.48 215.19,-477.34 204.61,-476.76 206.56,-483.48"/>
</g>
<!-- Balls1984932214XXXdraw2480008 -->
<g id="node3" class="node">
<title>Balls1984932214XXXdraw2480008</title>
<g id="a_node3"><a xlink:title="Balls&#10;&#10;null">
<ellipse fill="white" stroke="black" cx="251.86" cy="-297" rx="44.75" ry="18"/>
<text text-anchor="middle" x="251.86" y="-292.8" font-family="Times New Roman,serif" font-size="14.00" fill="darkgreen">+ draw()</text>
</a>
</g>
</g>
<!-- TreeDecorator1762961381XXXdraw2480008&#45;&gt;Balls1984932214XXXdraw2480008 -->
<g id="edge10" class="edge">
<title>TreeDecorator1762961381XXXdraw2480008&#45;&gt;Balls1984932214XXXdraw2480008</title>
<path fill="none" stroke="black" d="M235.36,-576.17C214.77,-555.18 182.23,-522 182.23,-522 182.23,-522 178.23,-513 178.23,-513 178.23,-513 178.23,-361 178.23,-361 178.23,-361 182.23,-352 182.23,-352 182.23,-352 204.11,-334.72 223.34,-319.53"/>
<polygon fill="black" stroke="black" points="225.67,-322.15 231.35,-313.2 221.33,-316.66 225.67,-322.15"/>
</g>
<!-- Star1984932214XXXdraw2480008 -->
<g id="node5" class="node">
<title>Star1984932214XXXdraw2480008</title>
<g id="a_node5"><a xlink:title="Star&#10;&#10;null">
<ellipse fill="white" stroke="black" cx="251.86" cy="-127" rx="44.75" ry="18"/>
<text text-anchor="middle" x="251.86" y="-122.8" font-family="Times New Roman,serif" font-size="14.00" fill="darkgreen">+ draw()</text>
</a>
</g>
</g>
<!-- TreeDecorator1762961381XXXdraw2480008&#45;&gt;Star1984932214XXXdraw2480008 -->
<g id="edge14" class="edge">
<title>TreeDecorator1762961381XXXdraw2480008&#45;&gt;Star1984932214XXXdraw2480008</title>
<path fill="none" stroke="black" d="M235.36,-576.17C214.77,-555.18 182.23,-522 182.23,-522 182.23,-522 178.23,-513 178.23,-513 178.23,-513 178.23,-191 178.23,-191 178.23,-191 182.23,-182 182.23,-182 182.23,-182 204.11,-164.72 223.34,-149.53"/>
<polygon fill="black" stroke="black" points="225.67,-152.15 231.35,-143.2 221.33,-146.66 225.67,-152.15"/>
</g>
<!-- Mishura1984932214XXXdraw2480008 -->
<g id="node6" class="node">
<title>Mishura1984932214XXXdraw2480008</title>
<g id="a_node6"><a xlink:title="Mishura&#10;&#10;null">
<ellipse fill="white" stroke="black" cx="251.86" cy="-382" rx="44.75" ry="18"/>
<text text-anchor="middle" x="251.86" y="-377.8" font-family="Times New Roman,serif" font-size="14.00" fill="darkgreen">+ draw()</text>
</a>
</g>
</g>
<!-- TreeDecorator1762961381XXXdraw2480008&#45;&gt;Mishura1984932214XXXdraw2480008 -->
<g id="edge12" class="edge">
<title>TreeDecorator1762961381XXXdraw2480008&#45;&gt;Mishura1984932214XXXdraw2480008</title>
<path fill="none" stroke="black" d="M235.36,-576.17C214.77,-555.18 182.23,-522 182.23,-522 182.23,-522 178.23,-513 178.23,-513 178.23,-513 178.23,-446 178.23,-446 178.23,-446 182.23,-437 182.23,-437 182.23,-437 204.11,-419.72 223.34,-404.53"/>
<polygon fill="black" stroke="black" points="225.67,-407.15 231.35,-398.2 221.33,-401.66 225.67,-407.15"/>
</g>
<!-- Presents1984932214XXXdraw2480008 -->
<g id="node8" class="node">
<title>Presents1984932214XXXdraw2480008</title>
<g id="a_node8"><a xlink:title="Presents&#10;&#10;null">
<ellipse fill="white" stroke="black" cx="251.86" cy="-42" rx="44.75" ry="18"/>
<text text-anchor="middle" x="251.86" y="-37.8" font-family="Times New Roman,serif" font-size="14.00" fill="darkgreen">+ draw()</text>
</a>
</g>
</g>
<!-- TreeDecorator1762961381XXXdraw2480008&#45;&gt;Presents1984932214XXXdraw2480008 -->
<g id="edge13" class="edge">
<title>TreeDecorator1762961381XXXdraw2480008&#45;&gt;Presents1984932214XXXdraw2480008</title>
<path fill="none" stroke="black" d="M235.36,-576.17C214.77,-555.18 182.23,-522 182.23,-522 182.23,-522 178.23,-513 178.23,-513 178.23,-513 178.23,-106 178.23,-106 178.23,-106 182.23,-97 182.23,-97 182.23,-97 204.11,-79.72 223.34,-64.53"/>
<polygon fill="black" stroke="black" points="225.67,-67.15 231.35,-58.2 221.33,-61.66 225.67,-67.15"/>
</g>
<!-- Girland1984932214XXXdraw2480008 -->
<g id="node10" class="node">
<title>Girland1984932214XXXdraw2480008</title>
<g id="a_node10"><a xlink:title="Girland&#10;&#10;null">
<ellipse fill="white" stroke="black" cx="251.86" cy="-212" rx="44.75" ry="18"/>
<text text-anchor="middle" x="251.86" y="-207.8" font-family="Times New Roman,serif" font-size="14.00" fill="darkgreen">+ draw()</text>
</a>
</g>
</g>
<!-- TreeDecorator1762961381XXXdraw2480008&#45;&gt;Girland1984932214XXXdraw2480008 -->
<g id="edge11" class="edge">
<title>TreeDecorator1762961381XXXdraw2480008&#45;&gt;Girland1984932214XXXdraw2480008</title>
<path fill="none" stroke="black" d="M235.36,-576.17C214.77,-555.18 182.23,-522 182.23,-522 182.23,-522 178.23,-513 178.23,-513 178.23,-513 178.23,-276 178.23,-276 178.23,-276 182.23,-267 182.23,-267 182.23,-267 204.11,-249.72 223.34,-234.53"/>
<polygon fill="black" stroke="black" points="225.67,-237.15 231.35,-228.2 221.33,-231.66 225.67,-237.15"/>
</g>
<!-- Balls1984932214XXXdraw2480008&#45;&gt;TreeDecorator1762961381XXXdraw2480008 -->
<g id="edge2" class="edge">
<title>Balls1984932214XXXdraw2480008&#45;&gt;TreeDecorator1762961381XXXdraw2480008</title>
<path fill="none" stroke="black" d="M231.35,-313.2C210.81,-329.43 182.23,-352 182.23,-352 182.23,-352 178.23,-361 178.23,-361 178.23,-361 178.23,-513 178.23,-513 178.23,-513 182.23,-522 182.23,-522 182.23,-522 208.04,-548.32 228.23,-568.91"/>
<polygon fill="black" stroke="black" points="225.86,-571.48 235.36,-576.17 230.86,-566.58 225.86,-571.48"/>
</g>
<!-- Balls1984932214XXXdrawBalls2480008 -->
<g id="node4" class="node">
<title>Balls1984932214XXXdrawBalls2480008</title>
<g id="a_node4"><a xlink:title="Balls&#10;&#10;null">
<ellipse fill="white" stroke="black" cx="419.3" cy="-297" rx="64.45" ry="18"/>
<text text-anchor="middle" x="419.3" y="-292.8" font-family="Times New Roman,serif" font-size="14.00" fill="darkgreen">+ drawBalls()</text>
</a>
</g>
</g>
<!-- Balls1984932214XXXdraw2480008&#45;&gt;Balls1984932214XXXdrawBalls2480008 -->
<g id="edge1" class="edge">
<title>Balls1984932214XXXdraw2480008&#45;&gt;Balls1984932214XXXdrawBalls2480008</title>
<path fill="none" stroke="black" d="M296.76,-297C311.43,-297 328.2,-297 344.5,-297"/>
<polygon fill="black" stroke="black" points="344.57,-300.5 354.57,-297 344.57,-293.5 344.57,-300.5"/>
</g>
<!-- Star1984932214XXXdraw2480008&#45;&gt;TreeDecorator1762961381XXXdraw2480008 -->
<g id="edge9" class="edge">
<title>Star1984932214XXXdraw2480008&#45;&gt;TreeDecorator1762961381XXXdraw2480008</title>
<path fill="none" stroke="black" d="M231.35,-143.2C210.81,-159.43 182.23,-182 182.23,-182 182.23,-182 178.23,-191 178.23,-191 178.23,-191 178.23,-513 178.23,-513 178.23,-513 182.23,-522 182.23,-522 182.23,-522 208.04,-548.32 228.23,-568.91"/>
<polygon fill="black" stroke="black" points="225.86,-571.48 235.36,-576.17 230.86,-566.58 225.86,-571.48"/>
</g>
<!-- Mishura1984932214XXXdraw2480008&#45;&gt;TreeDecorator1762961381XXXdraw2480008 -->
<g id="edge7" class="edge">
<title>Mishura1984932214XXXdraw2480008&#45;&gt;TreeDecorator1762961381XXXdraw2480008</title>
<path fill="none" stroke="black" d="M231.35,-398.2C210.81,-414.43 182.23,-437 182.23,-437 182.23,-437 178.23,-446 178.23,-446 178.23,-446 178.23,-513 178.23,-513 178.23,-513 182.23,-522 182.23,-522 182.23,-522 208.04,-548.32 228.23,-568.91"/>
<polygon fill="black" stroke="black" points="225.86,-571.48 235.36,-576.17 230.86,-566.58 225.86,-571.48"/>
</g>
<!-- Mishura1984932214XXXdrawMishura2480008 -->
<g id="node7" class="node">
<title>Mishura1984932214XXXdrawMishura2480008</title>
<g id="a_node7"><a xlink:title="Mishura&#10;&#10;null">
<ellipse fill="white" stroke="black" cx="419.3" cy="-382" rx="76.62" ry="18"/>
<text text-anchor="middle" x="419.3" y="-377.8" font-family="Times New Roman,serif" font-size="14.00" fill="darkgreen">+ drawMishura()</text>
</a>
</g>
</g>
<!-- Mishura1984932214XXXdraw2480008&#45;&gt;Mishura1984932214XXXdrawMishura2480008 -->
<g id="edge6" class="edge">
<title>Mishura1984932214XXXdraw2480008&#45;&gt;Mishura1984932214XXXdrawMishura2480008</title>
<path fill="none" stroke="black" d="M296.76,-382C307.68,-382 319.76,-382 331.95,-382"/>
<polygon fill="black" stroke="black" points="332.2,-385.5 342.2,-382 332.2,-378.5 332.2,-385.5"/>
</g>
<!-- Presents1984932214XXXdraw2480008&#45;&gt;TreeDecorator1762961381XXXdraw2480008 -->
<g id="edge8" class="edge">
<title>Presents1984932214XXXdraw2480008&#45;&gt;TreeDecorator1762961381XXXdraw2480008</title>
<path fill="none" stroke="black" d="M231.35,-58.2C210.81,-74.43 182.23,-97 182.23,-97 182.23,-97 178.23,-106 178.23,-106 178.23,-106 178.23,-513 178.23,-513 178.23,-513 182.23,-522 182.23,-522 182.23,-522 208.04,-548.32 228.23,-568.91"/>
<polygon fill="black" stroke="black" points="225.86,-571.48 235.36,-576.17 230.86,-566.58 225.86,-571.48"/>
</g>
<!-- Girland1984932214XXXdraw2480008&#45;&gt;TreeDecorator1762961381XXXdraw2480008 -->
<g id="edge3" class="edge">
<title>Girland1984932214XXXdraw2480008&#45;&gt;TreeDecorator1762961381XXXdraw2480008</title>
<path fill="none" stroke="black" d="M231.35,-228.2C210.81,-244.43 182.23,-267 182.23,-267 182.23,-267 178.23,-276 178.23,-276 178.23,-276 178.23,-513 178.23,-513 178.23,-513 182.23,-522 182.23,-522 182.23,-522 208.04,-548.32 228.23,-568.91"/>
<polygon fill="black" stroke="black" points="225.86,-571.48 235.36,-576.17 230.86,-566.58 225.86,-571.48"/>
</g>
</g>
</svg>
