<?xml version="1.0" encoding="UTF-8" standalone="no"?>
<!DOCTYPE svg PUBLIC "-//W3C//DTD SVG 1.1//EN"
 "http://www.w3.org/Graphics/SVG/1.1/DTD/svg11.dtd">
<!-- Generated by graphviz version 2.44.1 (20200629.0846)
 -->
<!-- Title: g Pages: 1 -->
<svg width="1422pt" height="833pt"
 viewBox="0.00 0.00 1422.00 833.20" xmlns="http://www.w3.org/2000/svg" xmlns:xlink="http://www.w3.org/1999/xlink">
<g id="graph0" class="graph" transform="scale(1 1) rotate(0) translate(4 829.2)">
<title>g</title>
<polygon fill="white" stroke="transparent" points="-4,4 -4,-829.2 1418,-829.2 1418,4 -4,4"/>
<g id="clust3" class="cluster">
<title>cluster_1762961381</title>
<polygon fill="#ececec" stroke="black" points="742,-226.8 742,-341.6 928,-341.6 928,-226.8 742,-226.8"/>
<text text-anchor="middle" x="777.98" y="-325" font-family="Times New Roman,serif" font-size="14.00">Decorator</text>
</g>
<g id="clust4" class="cluster">
<title>cluster_1984932214</title>
<polygon fill="#ececec" stroke="black" points="8,-8 8,-218.8 1406,-218.8 1406,-8 8,-8"/>
<text text-anchor="middle" x="37" y="-202.2" font-family="Times New Roman,serif" font-size="14.00">Models</text>
</g>
<g id="clust1" class="cluster">
<title>cluster_1322970774</title>
<polygon fill="#ececec" stroke="black" points="715,-349.6 715,-817.2 1067,-817.2 1067,-349.6 715,-349.6"/>
<text text-anchor="middle" x="746.71" y="-800.6" font-family="Times New Roman,serif" font-size="14.00">example</text>
</g>
<g id="clust2" class="cluster">
<title>cluster_129515983</title>
<polygon fill="#d8d8d8" stroke="black" points="723,-357.6 723,-784.4 1059,-784.4 1059,-357.6 723,-357.6"/>
<text text-anchor="middle" x="745.77" y="-767.8" font-family="Times New Roman,serif" font-size="14.00">task8</text>
</g>
<!-- HelloController537999326 -->
<g id="node1" class="node">
<title>HelloController537999326</title>
<polygon fill="#ffffff" stroke="transparent" points="1050.5,-751.6 731.5,-751.6 731.5,-365.6 1050.5,-365.6 1050.5,-751.6"/>
<text text-anchor="start" x="737" y="-734" font-family="Times New Roman,serif" font-size="14.00">(C)HelloController</text>
<text text-anchor="start" x="737" y="-710" font-family="Times New Roman,serif" font-size="14.00">&#45; &#160;&#160;paneBalls: Pane [0..1]</text>
<text text-anchor="start" x="737" y="-686" font-family="Times New Roman,serif" font-size="14.00">&#45; &#160;&#160;paneGirland: Pane [0..1]</text>
<text text-anchor="start" x="737" y="-662" font-family="Times New Roman,serif" font-size="14.00">&#45; &#160;&#160;paneMishura: Pane [0..1]</text>
<text text-anchor="start" x="737" y="-638" font-family="Times New Roman,serif" font-size="14.00">&#45; &#160;&#160;panePresent: Pane [0..1]</text>
<text text-anchor="start" x="737" y="-614" font-family="Times New Roman,serif" font-size="14.00">&#45; &#160;&#160;paneStar: Pane [0..1]</text>
<text text-anchor="start" x="737" y="-590" font-family="Times New Roman,serif" font-size="14.00">&#45; &#160;&#160;paneTree: Pane [0..1]</text>
<text text-anchor="start" x="737" y="-566" font-family="Times New Roman,serif" font-size="14.00"># &#160;&#160;tree: ChristmasTree [0..1]</text>
<text text-anchor="start" x="737" y="-542" font-family="Times New Roman,serif" font-size="14.00">&#45; addAll()</text>
<text text-anchor="start" x="737" y="-518" font-family="Times New Roman,serif" font-size="14.00">&#45; addBalls()</text>
<text text-anchor="start" x="737" y="-494" font-family="Times New Roman,serif" font-size="14.00">&#45; addLights()</text>
<text text-anchor="start" x="737" y="-470" font-family="Times New Roman,serif" font-size="14.00">&#45; addMishura()</text>
<text text-anchor="start" x="737" y="-446" font-family="Times New Roman,serif" font-size="14.00">&#45; addPresents()</text>
<text text-anchor="start" x="737" y="-422" font-family="Times New Roman,serif" font-size="14.00">&#45; addStar()</text>
<text text-anchor="start" x="736.52" y="-398" font-family="Times New Roman,serif" font-size="14.00">+ initialize(location: URL, resources: ResourceBundle)</text>
<text text-anchor="start" x="737" y="-374" font-family="Times New Roman,serif" font-size="14.00">&#45; removeAll()</text>
<polygon fill="black" stroke="black" points="732,-726.6 732,-726.6 1051,-726.6 1051,-726.6 732,-726.6"/>
<polygon fill="black" stroke="black" points="732,-558.6 732,-558.6 1051,-558.6 1051,-558.6 732,-558.6"/>
<polygon fill="none" stroke="black" points="731.5,-365.6 731.5,-751.6 1050.5,-751.6 1050.5,-365.6 731.5,-365.6"/>
</g>
<!-- TreeDecorator1762961381 -->
<g id="node2" class="node">
<title>TreeDecorator1762961381</title>
<polygon fill="#ffffff" stroke="transparent" points="919.5,-308.8 750.5,-308.8 750.5,-234.8 919.5,-234.8 919.5,-308.8"/>
<text text-anchor="start" x="756" y="-291.2" font-family="Times New Roman,serif" font-size="14.00">(C)TreeDecorator</text>
<text text-anchor="start" x="755.62" y="-267.2" font-family="Times New Roman,serif" font-size="14.00">&#45; &#160;&#160;tree: ChristmasTree [0..1]</text>
<text text-anchor="start" x="756" y="-243.2" font-family="Times New Roman,serif" font-size="14.00">+ draw(pane: Pane)</text>
<polygon fill="black" stroke="black" points="751,-283.8 751,-283.8 920,-283.8 920,-283.8 751,-283.8"/>
<polygon fill="black" stroke="black" points="751,-259.8 751,-259.8 920,-259.8 920,-259.8 751,-259.8"/>
<polygon fill="none" stroke="black" points="750.5,-234.8 750.5,-308.8 919.5,-308.8 919.5,-234.8 750.5,-234.8"/>
</g>
<!-- HelloController537999326&#45;&gt;TreeDecorator1762961381 -->
<g id="edge2" class="edge">
<title>HelloController537999326&#45;&gt;TreeDecorator1762961381</title>
<path fill="none" stroke="black" d="M853.18,-365.27C849.02,-344.09 845.18,-324.59 842.12,-309.02"/>
</g>
<!-- ChristmasTreeImpl1984932214 -->
<g id="node4" class="node">
<title>ChristmasTreeImpl1984932214</title>
<polygon fill="#ffffff" stroke="transparent" points="1397.5,-126 1260.5,-126 1260.5,-76 1397.5,-76 1397.5,-126"/>
<text text-anchor="start" x="1265.74" y="-108.4" font-family="Times New Roman,serif" font-size="14.00">(C)ChristmasTreeImpl</text>
<text text-anchor="start" x="1266" y="-84.4" font-family="Times New Roman,serif" font-size="14.00">+ draw(pane: Pane)</text>
<polygon fill="black" stroke="black" points="1261,-101 1261,-101 1398,-101 1398,-101 1261,-101"/>
<polygon fill="none" stroke="black" points="1260.5,-76 1260.5,-126 1397.5,-126 1397.5,-76 1260.5,-76"/>
</g>
<!-- HelloController537999326&#45;&gt;ChristmasTreeImpl1984932214 -->
<g id="edge1" class="edge">
<title>HelloController537999326&#45;&gt;ChristmasTreeImpl1984932214</title>
<path fill="none" stroke="black" d="M1050.74,-407.27C1146.96,-316.72 1251,-218.8 1251,-218.8 1251,-218.8 1289.99,-160.41 1312.84,-126.2"/>
</g>
<!-- Balls1984932214 -->
<g id="node3" class="node">
<title>Balls1984932214</title>
<polygon fill="#ffffff" stroke="transparent" points="1242,-174 1034,-174 1034,-28 1242,-28 1242,-174"/>
<text text-anchor="start" x="1039" y="-156.4" font-family="Times New Roman,serif" font-size="14.00">(C)Balls</text>
<text text-anchor="start" x="1039" y="-132.4" font-family="Times New Roman,serif" font-size="14.00">&#45; &#160;&#160;colors: ArrayList&lt;Color&gt; [0..*]</text>
<text text-anchor="start" x="1039" y="-108.4" font-family="Times New Roman,serif" font-size="14.00">&#45; &#160;&#160;random: Random [0..1]</text>
<text text-anchor="start" x="1038.94" y="-84.4" font-family="Times New Roman,serif" font-size="14.00">&#45; &#160;&#160;shapes: ArrayList&lt;Shape&gt; [0..*]</text>
<text text-anchor="start" x="1039" y="-60.4" font-family="Times New Roman,serif" font-size="14.00">+ draw(pane: Pane)</text>
<text text-anchor="start" x="1039" y="-36.4" font-family="Times New Roman,serif" font-size="14.00">+ drawBalls(pane: Pane)</text>
<polygon fill="black" stroke="black" points="1034,-149 1034,-149 1242,-149 1242,-149 1034,-149"/>
<polygon fill="black" stroke="black" points="1034,-77 1034,-77 1242,-77 1242,-77 1034,-77"/>
<polygon fill="none" stroke="black" points="1034,-28 1034,-174 1242,-174 1242,-28 1034,-28"/>
</g>
<!-- TreeDecorator1762961381&#45;&gt;Balls1984932214 -->
<g id="edge3" class="edge">
<title>TreeDecorator1762961381&#45;&gt;Balls1984932214</title>
<path fill="none" stroke="black" d="M929.55,-244.92C977.2,-231.88 1025,-218.8 1025,-218.8 1025,-218.8 1044.93,-198.2 1068.04,-174.31"/>
<polygon fill="none" stroke="black" points="928.44,-241.6 919.72,-247.61 930.29,-248.35 928.44,-241.6"/>
</g>
<!-- Girland1984932214 -->
<g id="node5" class="node">
<title>Girland1984932214</title>
<polygon fill="#ffffff" stroke="transparent" points="836,-174 634,-174 634,-28 836,-28 836,-174"/>
<text text-anchor="start" x="639" y="-156.4" font-family="Times New Roman,serif" font-size="14.00">(C)Girland</text>
<text text-anchor="start" x="639" y="-132.4" font-family="Times New Roman,serif" font-size="14.00">+ &#160;&#160;circle: Circle[] [0..*]</text>
<text text-anchor="start" x="638.66" y="-108.4" font-family="Times New Roman,serif" font-size="14.00">&#45; &#160;&#160;colors: ArrayList&lt;Color&gt; [0..*]</text>
<text text-anchor="start" x="639" y="-84.4" font-family="Times New Roman,serif" font-size="14.00">&#45; &#160;&#160;random: Random [0..1]</text>
<text text-anchor="start" x="639" y="-60.4" font-family="Times New Roman,serif" font-size="14.00">+ draw(pane: Pane)</text>
<text text-anchor="start" x="639" y="-36.4" font-family="Times New Roman,serif" font-size="14.00">&#45; drawGirland(pane: Pane)</text>
<polygon fill="black" stroke="black" points="634,-149 634,-149 836,-149 836,-149 634,-149"/>
<polygon fill="black" stroke="black" points="634,-77 634,-77 836,-77 836,-77 634,-77"/>
<polygon fill="none" stroke="black" points="634,-28 634,-174 836,-174 836,-28 634,-28"/>
</g>
<!-- TreeDecorator1762961381&#45;&gt;Girland1984932214 -->
<g id="edge4" class="edge">
<title>TreeDecorator1762961381&#45;&gt;Girland1984932214</title>
<path fill="none" stroke="black" d="M808.22,-225.59C798.87,-209.81 788.13,-191.69 777.81,-174.27"/>
<polygon fill="none" stroke="black" points="805.44,-227.77 813.55,-234.59 811.46,-224.2 805.44,-227.77"/>
</g>
<!-- Mishura1984932214 -->
<g id="node6" class="node">
<title>Mishura1984932214</title>
<polygon fill="#ffffff" stroke="transparent" points="616,-162 414,-162 414,-40 616,-40 616,-162"/>
<text text-anchor="start" x="419" y="-144.4" font-family="Times New Roman,serif" font-size="14.00">(C)Mishura</text>
<text text-anchor="start" x="418.66" y="-120.4" font-family="Times New Roman,serif" font-size="14.00">&#45; &#160;&#160;colors: ArrayList&lt;Color&gt; [0..*]</text>
<text text-anchor="start" x="419" y="-96.4" font-family="Times New Roman,serif" font-size="14.00">&#45; &#160;&#160;random: Random [0..1]</text>
<text text-anchor="start" x="419" y="-72.4" font-family="Times New Roman,serif" font-size="14.00">+ draw(pane: Pane)</text>
<text text-anchor="start" x="419" y="-48.4" font-family="Times New Roman,serif" font-size="14.00">+ drawMishura(pane: Pane)</text>
<polygon fill="black" stroke="black" points="414,-137 414,-137 616,-137 616,-137 414,-137"/>
<polygon fill="black" stroke="black" points="414,-89 414,-89 616,-89 616,-89 414,-89"/>
<polygon fill="none" stroke="black" points="414,-40 414,-162 616,-162 616,-40 414,-40"/>
</g>
<!-- TreeDecorator1762961381&#45;&gt;Mishura1984932214 -->
<g id="edge5" class="edge">
<title>TreeDecorator1762961381&#45;&gt;Mishura1984932214</title>
<path fill="none" stroke="black" d="M740.51,-247.4C684.75,-233.59 625,-218.8 625,-218.8 625,-218.8 598.56,-190.73 571.61,-162.11"/>
<polygon fill="none" stroke="black" points="739.94,-250.87 750.49,-249.87 741.63,-244.07 739.94,-250.87"/>
</g>
<!-- Presents1984932214 -->
<g id="node7" class="node">
<title>Presents1984932214</title>
<polygon fill="#ffffff" stroke="transparent" points="395.5,-186 16.5,-186 16.5,-16 395.5,-16 395.5,-186"/>
<text text-anchor="start" x="22" y="-168.4" font-family="Times New Roman,serif" font-size="14.00">(C)Presents</text>
<text text-anchor="start" x="22" y="-144.4" font-family="Times New Roman,serif" font-size="14.00">&#45; &#160;&#160;colors: ArrayList&lt;Color&gt; [0..*]</text>
<text text-anchor="start" x="22" y="-120.4" font-family="Times New Roman,serif" font-size="14.00">&#45; &#160;&#160;random: Random [0..1]</text>
<text text-anchor="start" x="22" y="-96.4" font-family="Times New Roman,serif" font-size="14.00">&#45; &#160;&#160;shapes: ArrayList&lt;Shape&gt; [0..*]</text>
<text text-anchor="start" x="21.9" y="-72.4" font-family="Times New Roman,serif" font-size="14.00">&#45; createPresent(posX: int, posY: int, size: int): Collection&lt;Shape&gt;</text>
<text text-anchor="start" x="22" y="-48.4" font-family="Times New Roman,serif" font-size="14.00">+ draw(pane: Pane)</text>
<text text-anchor="start" x="22" y="-24.4" font-family="Times New Roman,serif" font-size="14.00">&#45; drawPresents(pane: Pane)</text>
<polygon fill="black" stroke="black" points="17,-161 17,-161 396,-161 396,-161 17,-161"/>
<polygon fill="black" stroke="black" points="17,-89 17,-89 396,-89 396,-89 17,-89"/>
<polygon fill="none" stroke="black" points="16.5,-16 16.5,-186 395.5,-186 395.5,-16 16.5,-16"/>
</g>
<!-- TreeDecorator1762961381&#45;&gt;Presents1984932214 -->
<g id="edge6" class="edge">
<title>TreeDecorator1762961381&#45;&gt;Presents1984932214</title>
<path fill="none" stroke="black" d="M740.2,-259.34C613.58,-244.02 405,-218.8 405,-218.8 405,-218.8 380.81,-204.6 349.3,-186.11"/>
<polygon fill="none" stroke="black" points="739.95,-262.83 750.3,-260.56 740.8,-255.88 739.95,-262.83"/>
</g>
<!-- Star1984932214 -->
<g id="node8" class="node">
<title>Star1984932214</title>
<polygon fill="#ffffff" stroke="transparent" points="1015.5,-138 854.5,-138 854.5,-64 1015.5,-64 1015.5,-138"/>
<text text-anchor="start" x="860" y="-120.4" font-family="Times New Roman,serif" font-size="14.00">(C)Star</text>
<text text-anchor="start" x="860" y="-96.4" font-family="Times New Roman,serif" font-size="14.00">+ draw(paneStar: Pane)</text>
<text text-anchor="start" x="859.7" y="-72.4" font-family="Times New Roman,serif" font-size="14.00">&#45; drawStar(paneStar: Pane)</text>
<polygon fill="black" stroke="black" points="855,-113 855,-113 1016,-113 1016,-113 855,-113"/>
<polygon fill="none" stroke="black" points="854.5,-64 854.5,-138 1015.5,-138 1015.5,-64 854.5,-64"/>
</g>
<!-- TreeDecorator1762961381&#45;&gt;Star1984932214 -->
<g id="edge7" class="edge">
<title>TreeDecorator1762961381&#45;&gt;Star1984932214</title>
<path fill="none" stroke="black" d="M861.57,-225.95C877.83,-198.5 898.37,-163.84 913.58,-138.15"/>
<polygon fill="none" stroke="black" points="858.54,-224.2 856.45,-234.59 864.56,-227.77 858.54,-224.2"/>
</g>
</g>
</svg>
