<?xml version="1.0" encoding="UTF-8" standalone="no"?>
<!DOCTYPE svg PUBLIC "-//W3C//DTD SVG 1.1//EN"
 "http://www.w3.org/Graphics/SVG/1.1/DTD/svg11.dtd">
<!-- Generated by graphviz version 2.44.1 (20200629.0846)
 -->
<!-- Title: g Pages: 1 -->
<svg width="891pt" height="1586pt"
 viewBox="0.00 0.00 891.00 1586.20" xmlns="http://www.w3.org/2000/svg" xmlns:xlink="http://www.w3.org/1999/xlink">
<g id="graph0" class="graph" transform="scale(1 1) rotate(0) translate(4 1582.2)">
<title>g</title>
<polygon fill="white" stroke="transparent" points="-4,4 -4,-1582.2 887,-1582.2 887,4 -4,4"/>
<g id="clust1" class="cluster">
<title>cluster_1322970774</title>
<polygon fill="#a5d3d2" stroke="black" points="8,-8 8,-1570.2 875,-1570.2 875,-8 8,-8"/>
<text text-anchor="middle" x="39.71" y="-1553.6" font-family="Times New Roman,serif" font-size="14.00">example</text>
</g>
<g id="clust2" class="cluster">
<title>cluster_114853162</title>
<polygon fill="#a5d3d2" stroke="black" points="16,-16 16,-1537.4 867,-1537.4 867,-16 16,-16"/>
<text text-anchor="middle" x="43.05" y="-1520.8" font-family="Times New Roman,serif" font-size="14.00">demo1</text>
</g>
<!-- Circle552662147 -->
<g id="node1" class="node">
<title>Circle552662147</title>
<polygon fill="#c1edda" stroke="transparent" points="290,-194 24,-194 24,-24 290,-24 290,-194"/>
<text text-anchor="start" x="29" y="-176.4" font-family="Times New Roman,serif" font-size="14.00">(C)Circle</text>
<text text-anchor="start" x="29" y="-152.4" font-family="Times New Roman,serif" font-size="14.00"># &#160;&#160;width: double [1]</text>
<text text-anchor="start" x="29" y="-128.4" font-family="Times New Roman,serif" font-size="14.00"># GetHeight(): double</text>
<text text-anchor="start" x="29" y="-104.4" font-family="Times New Roman,serif" font-size="14.00"># SetHeight(value: double)</text>
<text text-anchor="start" x="29" y="-80.4" font-family="Times New Roman,serif" font-size="14.00">+ area(): double</text>
<text text-anchor="start" x="28.85" y="-56.4" font-family="Times New Roman,serif" font-size="14.00">+ draw(gr: GraphicsContext, canvas: Canvas)</text>
<text text-anchor="start" x="29" y="-32.4" font-family="Times New Roman,serif" font-size="14.00"># drawHand(gr: GraphicsContext)</text>
<polygon fill="black" stroke="black" points="24,-169 24,-169 290,-169 290,-169 24,-169"/>
<polygon fill="black" stroke="black" points="24,-145 24,-145 290,-145 290,-145 24,-145"/>
<polygon fill="none" stroke="black" points="24,-24 24,-194 290,-194 290,-24 24,-24"/>
</g>
<!-- HelloController552662147 -->
<g id="node2" class="node">
<title>HelloController552662147</title>
<polygon fill="#c1edda" stroke="transparent" points="560.5,-1504.6 321.5,-1504.6 321.5,-686.6 560.5,-686.6 560.5,-1504.6"/>
<text text-anchor="start" x="327" y="-1487" font-family="Times New Roman,serif" font-size="14.00">(C)HelloController</text>
<text text-anchor="start" x="327" y="-1463" font-family="Times New Roman,serif" font-size="14.00">+ &#160;&#160;borde: TextField [0..1]</text>
<text text-anchor="start" x="327" y="-1439" font-family="Times New Roman,serif" font-size="14.00">+ &#160;&#160;button1: Button [0..1]</text>
<text text-anchor="start" x="327" y="-1415" font-family="Times New Roman,serif" font-size="14.00">+ &#160;&#160;buttonClear: Button [0..1]</text>
<text text-anchor="start" x="327" y="-1391" font-family="Times New Roman,serif" font-size="14.00"># &#160;&#160;canvas: Canvas [0..1]</text>
<text text-anchor="start" x="327" y="-1367" font-family="Times New Roman,serif" font-size="14.00"># &#160;&#160;check: CheckBox [0..1]</text>
<text text-anchor="start" x="326.56" y="-1343" font-family="Times New Roman,serif" font-size="14.00">+ &#160;&#160;colorpickerBorder: ColorPicker [0..1]</text>
<text text-anchor="start" x="327" y="-1319" font-family="Times New Roman,serif" font-size="14.00">+ &#160;&#160;colorpickerFill: ColorPicker [0..1]</text>
<text text-anchor="start" x="327" y="-1295" font-family="Times New Roman,serif" font-size="14.00"># &#160;&#160;figure: Shape [0..1]</text>
<text text-anchor="start" x="327" y="-1271" font-family="Times New Roman,serif" font-size="14.00">+ &#160;&#160;label0: Label [0..1]</text>
<text text-anchor="start" x="327" y="-1247" font-family="Times New Roman,serif" font-size="14.00"># &#160;&#160;labelBorder: Label [0..1]</text>
<text text-anchor="start" x="327" y="-1223" font-family="Times New Roman,serif" font-size="14.00"># &#160;&#160;labeltoString: Label [0..1]</text>
<text text-anchor="start" x="327" y="-1199" font-family="Times New Roman,serif" font-size="14.00">+ &#160;&#160;labelx1: Label [0..1]</text>
<text text-anchor="start" x="327" y="-1175" font-family="Times New Roman,serif" font-size="14.00">+ &#160;&#160;labelx2: Label [0..1]</text>
<text text-anchor="start" x="327" y="-1151" font-family="Times New Roman,serif" font-size="14.00">+ &#160;&#160;labelx3: Label [0..1]</text>
<text text-anchor="start" x="327" y="-1127" font-family="Times New Roman,serif" font-size="14.00">+ &#160;&#160;labely1: Label [0..1]</text>
<text text-anchor="start" x="327" y="-1103" font-family="Times New Roman,serif" font-size="14.00">+ &#160;&#160;labely2: Label [0..1]</text>
<text text-anchor="start" x="327" y="-1079" font-family="Times New Roman,serif" font-size="14.00">+ &#160;&#160;labely3: Label [0..1]</text>
<text text-anchor="start" x="327" y="-1055" font-family="Times New Roman,serif" font-size="14.00">+ &#160;&#160;logiccircle: boolean [1]</text>
<text text-anchor="start" x="327" y="-1031" font-family="Times New Roman,serif" font-size="14.00">+ &#160;&#160;logichandtriangle: boolean [1]</text>
<text text-anchor="start" x="327" y="-1007" font-family="Times New Roman,serif" font-size="14.00">+ &#160;&#160;logicrectangle: boolean [1]</text>
<text text-anchor="start" x="327" y="-983" font-family="Times New Roman,serif" font-size="14.00">+ &#160;&#160;x1: TextField [0..1]</text>
<text text-anchor="start" x="327" y="-959" font-family="Times New Roman,serif" font-size="14.00">+ &#160;&#160;x2: TextField [0..1]</text>
<text text-anchor="start" x="327" y="-935" font-family="Times New Roman,serif" font-size="14.00">+ &#160;&#160;x3: TextField [0..1]</text>
<text text-anchor="start" x="327" y="-911" font-family="Times New Roman,serif" font-size="14.00">+ &#160;&#160;y1: TextField [0..1]</text>
<text text-anchor="start" x="327" y="-887" font-family="Times New Roman,serif" font-size="14.00">+ &#160;&#160;y2: TextField [0..1]</text>
<text text-anchor="start" x="327" y="-863" font-family="Times New Roman,serif" font-size="14.00">+ &#160;&#160;y3: TextField [0..1]</text>
<text text-anchor="start" x="327" y="-839" font-family="Times New Roman,serif" font-size="14.00"># onClick()</text>
<text text-anchor="start" x="327" y="-815" font-family="Times New Roman,serif" font-size="14.00"># onClick2()</text>
<text text-anchor="start" x="327" y="-791" font-family="Times New Roman,serif" font-size="14.00"># onClick3()</text>
<text text-anchor="start" x="327" y="-767" font-family="Times New Roman,serif" font-size="14.00"># onClick4()</text>
<text text-anchor="start" x="327" y="-743" font-family="Times New Roman,serif" font-size="14.00"># onClick5()</text>
<text text-anchor="start" x="327" y="-719" font-family="Times New Roman,serif" font-size="14.00"># onClickClear()</text>
<text text-anchor="start" x="327" y="-695" font-family="Times New Roman,serif" font-size="14.00"># onMouseClicked(event: MouseEvent)</text>
<polygon fill="black" stroke="black" points="322,-1479.6 322,-1479.6 561,-1479.6 561,-1479.6 322,-1479.6"/>
<polygon fill="black" stroke="black" points="322,-855.6 322,-855.6 561,-855.6 561,-855.6 322,-855.6"/>
<polygon fill="none" stroke="black" points="321.5,-686.6 321.5,-1504.6 560.5,-1504.6 560.5,-686.6 321.5,-686.6"/>
</g>
<!-- Shape552662147 -->
<g id="node4" class="node">
<title>Shape552662147</title>
<polygon fill="#c1edda" stroke="transparent" points="573.5,-617 308.5,-617 308.5,-231 573.5,-231 573.5,-617"/>
<text text-anchor="start" x="314" y="-599.4" font-family="Times New Roman,serif" font-size="14.00">(C)Shape</text>
<text text-anchor="start" x="314" y="-575.4" font-family="Times New Roman,serif" font-size="14.00"># &#160;&#160;colorBorder: Color [0..1]</text>
<text text-anchor="start" x="314" y="-551.4" font-family="Times New Roman,serif" font-size="14.00"># &#160;&#160;colorFill: Color [0..1]</text>
<text text-anchor="start" x="314" y="-527.4" font-family="Times New Roman,serif" font-size="14.00">+ &#160;&#160;height: double [1]</text>
<text text-anchor="start" x="314" y="-503.4" font-family="Times New Roman,serif" font-size="14.00"># &#160;&#160;lineBorder: double [1]</text>
<text text-anchor="start" x="314" y="-479.4" font-family="Times New Roman,serif" font-size="14.00"># &#160;&#160;x: double [1]</text>
<text text-anchor="start" x="314" y="-455.4" font-family="Times New Roman,serif" font-size="14.00"># &#160;&#160;x1: double [1]</text>
<text text-anchor="start" x="314" y="-431.4" font-family="Times New Roman,serif" font-size="14.00"># &#160;&#160;x2: double [1]</text>
<text text-anchor="start" x="314" y="-407.4" font-family="Times New Roman,serif" font-size="14.00"># &#160;&#160;y: double [1]</text>
<text text-anchor="start" x="314" y="-383.4" font-family="Times New Roman,serif" font-size="14.00"># &#160;&#160;y1: double [1]</text>
<text text-anchor="start" x="314" y="-359.4" font-family="Times New Roman,serif" font-size="14.00"># &#160;&#160;y2: double [1]</text>
<text text-anchor="start" x="314" y="-335.4" font-family="Times New Roman,serif" font-size="14.00"># GetHeight(): double</text>
<text text-anchor="start" x="314" y="-311.4" font-family="Times New Roman,serif" font-size="14.00"># SetHeight(value: double)</text>
<text text-anchor="start" x="314" y="-287.4" font-family="Times New Roman,serif" font-size="14.00"># area(): double</text>
<text text-anchor="start" x="313.8" y="-263.4" font-family="Times New Roman,serif" font-size="14.00"># draw(gr: GraphicsContext, canvas: Canvas)</text>
<text text-anchor="start" x="314" y="-239.4" font-family="Times New Roman,serif" font-size="14.00"># drawHand(gr: GraphicsContext)</text>
<polygon fill="black" stroke="black" points="309,-592 309,-592 574,-592 574,-592 309,-592"/>
<polygon fill="black" stroke="black" points="309,-352 309,-352 574,-352 574,-352 309,-352"/>
<polygon fill="none" stroke="black" points="308.5,-231 308.5,-617 573.5,-617 573.5,-231 308.5,-231"/>
</g>
<!-- HelloController552662147&#45;&gt;Shape552662147 -->
<g id="edge1" class="edge">
<title>HelloController552662147&#45;&gt;Shape552662147</title>
<path fill="none" stroke="black" d="M441,-686.28C441,-666.17 441,-646.44 441,-627.38"/>
<polygon fill="black" stroke="black" points="444.5,-627.18 441,-617.18 437.5,-627.18 444.5,-627.18"/>
<text text-anchor="middle" x="457.71" y="-656" font-family="Times New Roman,serif" font-size="14.00">figure</text>
<text text-anchor="middle" x="457.71" y="-639.2" font-family="Times New Roman,serif" font-size="14.00">[0..1]</text>
</g>
<!-- Rectangle552662147 -->
<g id="node3" class="node">
<title>Rectangle552662147</title>
<polygon fill="#c1edda" stroke="transparent" points="573.5,-194 308.5,-194 308.5,-24 573.5,-24 573.5,-194"/>
<text text-anchor="start" x="314" y="-176.4" font-family="Times New Roman,serif" font-size="14.00">(C)Rectangle</text>
<text text-anchor="start" x="314" y="-152.4" font-family="Times New Roman,serif" font-size="14.00"># &#160;&#160;length: double [1]</text>
<text text-anchor="start" x="314" y="-128.4" font-family="Times New Roman,serif" font-size="14.00"># GetHeight(): double</text>
<text text-anchor="start" x="314" y="-104.4" font-family="Times New Roman,serif" font-size="14.00"># SetHeight(value: double)</text>
<text text-anchor="start" x="314" y="-80.4" font-family="Times New Roman,serif" font-size="14.00">+ area(): double</text>
<text text-anchor="start" x="313.8" y="-56.4" font-family="Times New Roman,serif" font-size="14.00"># draw(gr: GraphicsContext, canvas: Canvas)</text>
<text text-anchor="start" x="314" y="-32.4" font-family="Times New Roman,serif" font-size="14.00"># drawHand(gr: GraphicsContext)</text>
<polygon fill="black" stroke="black" points="309,-169 309,-169 574,-169 574,-169 309,-169"/>
<polygon fill="black" stroke="black" points="309,-145 309,-145 574,-145 574,-145 309,-145"/>
<polygon fill="none" stroke="black" points="308.5,-24 308.5,-194 573.5,-194 573.5,-24 308.5,-24"/>
</g>
<!-- Shape552662147&#45;&gt;Circle552662147 -->
<g id="edge2" class="edge">
<title>Shape552662147&#45;&gt;Circle552662147</title>
<path fill="none" stroke="black" d="M301.21,-268.94C277.78,-243.12 254.28,-217.21 233.24,-194.02"/>
<polygon fill="none" stroke="black" points="298.83,-271.53 308.15,-276.58 304.02,-266.82 298.83,-271.53"/>
</g>
<!-- Shape552662147&#45;&gt;Rectangle552662147 -->
<g id="edge3" class="edge">
<title>Shape552662147&#45;&gt;Rectangle552662147</title>
<path fill="none" stroke="black" d="M441,-220.3C441,-211.28 441,-202.49 441,-194.06"/>
<polygon fill="none" stroke="black" points="437.5,-220.57 441,-230.57 444.5,-220.57 437.5,-220.57"/>
</g>
<!-- Triangle552662147 -->
<g id="node5" class="node">
<title>Triangle552662147</title>
<polygon fill="#c1edda" stroke="transparent" points="858.5,-182 591.5,-182 591.5,-36 858.5,-36 858.5,-182"/>
<text text-anchor="start" x="597" y="-164.4" font-family="Times New Roman,serif" font-size="14.00">(C)Triangle</text>
<text text-anchor="start" x="597" y="-140.4" font-family="Times New Roman,serif" font-size="14.00"># GetHeight(): double</text>
<text text-anchor="start" x="597" y="-116.4" font-family="Times New Roman,serif" font-size="14.00"># SetHeight(value: double)</text>
<text text-anchor="start" x="597" y="-92.4" font-family="Times New Roman,serif" font-size="14.00"># area(): double</text>
<text text-anchor="start" x="596.57" y="-68.4" font-family="Times New Roman,serif" font-size="14.00">+ draw(gc: GraphicsContext, canvas: Canvas)</text>
<text text-anchor="start" x="597" y="-44.4" font-family="Times New Roman,serif" font-size="14.00">+ drawHand(gc: GraphicsContext)</text>
<polygon fill="black" stroke="black" points="592,-157 592,-157 859,-157 859,-157 592,-157"/>
<polygon fill="none" stroke="black" points="591.5,-36 591.5,-182 858.5,-182 858.5,-36 591.5,-36"/>
</g>
<!-- Shape552662147&#45;&gt;Triangle552662147 -->
<g id="edge4" class="edge">
<title>Shape552662147&#45;&gt;Triangle552662147</title>
<path fill="none" stroke="black" d="M580.83,-268.89C608.29,-238.62 635.87,-208.24 659.44,-182.26"/>
<polygon fill="none" stroke="black" points="577.98,-266.82 573.85,-276.58 583.17,-271.53 577.98,-266.82"/>
</g>
</g>
</svg>
