<?xml version="1.0" encoding="UTF-8" standalone="no"?>
<!DOCTYPE svg PUBLIC "-//W3C//DTD SVG 1.1//EN"
 "http://www.w3.org/Graphics/SVG/1.1/DTD/svg11.dtd">
<!-- Generated by graphviz version 2.44.1 (20200629.0846)
 -->
<!-- Title: g Pages: 1 -->
<svg width="2809pt" height="729pt"
 viewBox="0.00 0.00 2809.00 729.20" xmlns="http://www.w3.org/2000/svg" xmlns:xlink="http://www.w3.org/1999/xlink">
<g id="graph0" class="graph" transform="scale(1 1) rotate(0) translate(4 725.2)">
<title>g</title>
<polygon fill="white" stroke="transparent" points="-4,4 -4,-725.2 2805,-725.2 2805,4 -4,4"/>
<g id="clust1" class="cluster">
<title>cluster_1068799382</title>
<polygon fill="#ececec" stroke="black" points="8,-8 8,-608.4 1997,-608.4 1997,-8 8,-8"/>
<text text-anchor="middle" x="36.22" y="-591.8" font-family="Times New Roman,serif" font-size="14.00">models</text>
</g>
<g id="clust4" class="cluster">
<title>cluster_572770538</title>
<polygon fill="#ececec" stroke="black" points="2005,-68 2005,-158.8 2793,-158.8 2793,-68 2005,-68"/>
<text text-anchor="middle" x="2034.38" y="-142.2" font-family="Times New Roman,serif" font-size="14.00">Factory</text>
</g>
<g id="clust2" class="cluster">
<title>cluster_1322970774</title>
<polygon fill="#ececec" stroke="black" points="2220,-245.6 2220,-713.2 2578,-713.2 2578,-245.6 2220,-245.6"/>
<text text-anchor="middle" x="2251.71" y="-696.6" font-family="Times New Roman,serif" font-size="14.00">example</text>
</g>
<g id="clust3" class="cluster">
<title>cluster_129515977</title>
<polygon fill="#d8d8d8" stroke="black" points="2228,-253.6 2228,-680.4 2570,-680.4 2570,-253.6 2228,-253.6"/>
<text text-anchor="middle" x="2250.77" y="-663.8" font-family="Times New Roman,serif" font-size="14.00">task2</text>
</g>
<!-- Angle1068799382 -->
<g id="node1" class="node">
<title>Angle1068799382</title>
<polygon fill="#ffffff" stroke="transparent" points="282,-138 16,-138 16,-64 282,-64 282,-138"/>
<text text-anchor="start" x="21" y="-120.4" font-family="Times New Roman,serif" font-size="14.00">(C)Angle</text>
<text text-anchor="start" x="21" y="-96.4" font-family="Times New Roman,serif" font-size="14.00">+ descriptor(): String</text>
<text text-anchor="start" x="20.85" y="-72.4" font-family="Times New Roman,serif" font-size="14.00">+ draw(canvas: Canvas, gr: GraphicsContext)</text>
<polygon fill="black" stroke="black" points="16,-113 16,-113 282,-113 282,-113 16,-113"/>
<polygon fill="none" stroke="black" points="16,-64 16,-138 282,-138 282,-64 16,-64"/>
</g>
<!-- Circle1068799382 -->
<g id="node2" class="node">
<title>Circle1068799382</title>
<polygon fill="#ffffff" stroke="transparent" points="566,-138 300,-138 300,-64 566,-64 566,-138"/>
<text text-anchor="start" x="305" y="-120.4" font-family="Times New Roman,serif" font-size="14.00">(C)Circle</text>
<text text-anchor="start" x="305" y="-96.4" font-family="Times New Roman,serif" font-size="14.00">+ descriptor(): String</text>
<text text-anchor="start" x="304.85" y="-72.4" font-family="Times New Roman,serif" font-size="14.00">+ draw(canvas: Canvas, gr: GraphicsContext)</text>
<polygon fill="black" stroke="black" points="300,-113 300,-113 566,-113 566,-113 300,-113"/>
<polygon fill="none" stroke="black" points="300,-64 300,-138 566,-138 566,-64 300,-64"/>
</g>
<!-- Pentagon1068799382 -->
<g id="node3" class="node">
<title>Pentagon1068799382</title>
<polygon fill="#ffffff" stroke="transparent" points="850,-138 584,-138 584,-64 850,-64 850,-138"/>
<text text-anchor="start" x="589" y="-120.4" font-family="Times New Roman,serif" font-size="14.00">(C)Pentagon</text>
<text text-anchor="start" x="589" y="-96.4" font-family="Times New Roman,serif" font-size="14.00">+ descriptor(): String</text>
<text text-anchor="start" x="588.85" y="-72.4" font-family="Times New Roman,serif" font-size="14.00">+ draw(canvas: Canvas, gr: GraphicsContext)</text>
<polygon fill="black" stroke="black" points="584,-113 584,-113 850,-113 850,-113 584,-113"/>
<polygon fill="none" stroke="black" points="584,-64 584,-138 850,-138 850,-64 584,-64"/>
</g>
<!-- Rectangle1068799382 -->
<g id="node4" class="node">
<title>Rectangle1068799382</title>
<polygon fill="#ffffff" stroke="transparent" points="1134,-186 868,-186 868,-16 1134,-16 1134,-186"/>
<text text-anchor="start" x="873" y="-168.4" font-family="Times New Roman,serif" font-size="14.00">(C)Rectangle</text>
<text text-anchor="start" x="873" y="-144.4" font-family="Times New Roman,serif" font-size="14.00"># &#160;&#160;length: double [1]</text>
<text text-anchor="start" x="873" y="-120.4" font-family="Times New Roman,serif" font-size="14.00"># GetHeight(): double</text>
<text text-anchor="start" x="873" y="-96.4" font-family="Times New Roman,serif" font-size="14.00"># SetHeight(value: double)</text>
<text text-anchor="start" x="873" y="-72.4" font-family="Times New Roman,serif" font-size="14.00">+ area(): double</text>
<text text-anchor="start" x="872.85" y="-48.4" font-family="Times New Roman,serif" font-size="14.00">+ draw(gr: GraphicsContext, canvas: Canvas)</text>
<text text-anchor="start" x="873" y="-24.4" font-family="Times New Roman,serif" font-size="14.00">+ drawHand(gr: GraphicsContext)</text>
<polygon fill="black" stroke="black" points="868,-161 868,-161 1134,-161 1134,-161 868,-161"/>
<polygon fill="black" stroke="black" points="868,-137 868,-137 1134,-137 1134,-137 868,-137"/>
<polygon fill="none" stroke="black" points="868,-16 868,-186 1134,-186 1134,-16 868,-16"/>
</g>
<!-- Shape1068799382 -->
<g id="node5" class="node">
<title>Shape1068799382</title>
<polygon fill="#ffffff" stroke="transparent" points="1134,-575.6 868,-575.6 868,-333.6 1134,-333.6 1134,-575.6"/>
<text text-anchor="start" x="873" y="-558" font-family="Times New Roman,serif" font-size="14.00">(C)Shape</text>
<text text-anchor="start" x="873" y="-534" font-family="Times New Roman,serif" font-size="14.00"># &#160;&#160;colorBorder: Color [0..1]</text>
<text text-anchor="start" x="873" y="-510" font-family="Times New Roman,serif" font-size="14.00"># &#160;&#160;colorFill: Color [0..1]</text>
<text text-anchor="start" x="873" y="-486" font-family="Times New Roman,serif" font-size="14.00">+ &#160;&#160;height: double [1]</text>
<text text-anchor="start" x="873" y="-462" font-family="Times New Roman,serif" font-size="14.00"># &#160;&#160;lineBorder: int [1]</text>
<text text-anchor="start" x="873" y="-438" font-family="Times New Roman,serif" font-size="14.00">+ &#160;&#160;width: double [1]</text>
<text text-anchor="start" x="873" y="-414" font-family="Times New Roman,serif" font-size="14.00"># &#160;&#160;x: double [1]</text>
<text text-anchor="start" x="873" y="-390" font-family="Times New Roman,serif" font-size="14.00"># &#160;&#160;y: double [1]</text>
<text text-anchor="start" x="873" y="-366" font-family="Times New Roman,serif" font-size="14.00">+ descriptor(): String</text>
<text text-anchor="start" x="872.85" y="-342" font-family="Times New Roman,serif" font-size="14.00">+ draw(canvas: Canvas, gr: GraphicsContext)</text>
<polygon fill="black" stroke="black" points="868,-550.6 868,-550.6 1134,-550.6 1134,-550.6 868,-550.6"/>
<polygon fill="black" stroke="black" points="868,-382.6 868,-382.6 1134,-382.6 1134,-382.6 868,-382.6"/>
<polygon fill="none" stroke="black" points="868,-333.6 868,-575.6 1134,-575.6 1134,-333.6 868,-333.6"/>
</g>
<!-- Shape1068799382&#45;&gt;Angle1068799382 -->
<g id="edge2" class="edge">
<title>Shape1068799382&#45;&gt;Angle1068799382</title>
<path fill="none" stroke="black" d="M858.42,-399.86C651.13,-321.73 291,-186 291,-186 291,-186 248.53,-160.88 210.04,-138.11"/>
<polygon fill="none" stroke="black" points="857.28,-403.17 867.87,-403.42 859.75,-396.62 857.28,-403.17"/>
</g>
<!-- Shape1068799382&#45;&gt;Circle1068799382 -->
<g id="edge3" class="edge">
<title>Shape1068799382&#45;&gt;Circle1068799382</title>
<path fill="none" stroke="black" d="M859.01,-365.71C740.43,-292.3 577.37,-191.36 491.44,-138.17"/>
<polygon fill="none" stroke="black" points="857.48,-368.88 867.83,-371.17 861.17,-362.93 857.48,-368.88"/>
</g>
<!-- Shape1068799382&#45;&gt;Pentagon1068799382 -->
<g id="edge4" class="edge">
<title>Shape1068799382&#45;&gt;Pentagon1068799382</title>
<path fill="none" stroke="black" d="M897.54,-325.51C843.71,-258.87 781.9,-182.34 746.35,-138.33"/>
<polygon fill="none" stroke="black" points="895.05,-328 904.06,-333.58 900.5,-323.6 895.05,-328"/>
</g>
<!-- Shape1068799382&#45;&gt;Rectangle1068799382 -->
<g id="edge5" class="edge">
<title>Shape1068799382&#45;&gt;Rectangle1068799382</title>
<path fill="none" stroke="black" d="M1001,-323.54C1001,-277.59 1001,-227.15 1001,-186.03"/>
<polygon fill="none" stroke="black" points="997.5,-323.58 1001,-333.58 1004.5,-323.58 997.5,-323.58"/>
</g>
<!-- Square1068799382 -->
<g id="node6" class="node">
<title>Square1068799382</title>
<polygon fill="#ffffff" stroke="transparent" points="1418,-138 1152,-138 1152,-64 1418,-64 1418,-138"/>
<text text-anchor="start" x="1157" y="-120.4" font-family="Times New Roman,serif" font-size="14.00">(C)Square</text>
<text text-anchor="start" x="1157" y="-96.4" font-family="Times New Roman,serif" font-size="14.00">+ descriptor(): String</text>
<text text-anchor="start" x="1156.85" y="-72.4" font-family="Times New Roman,serif" font-size="14.00">+ draw(canvas: Canvas, gr: GraphicsContext)</text>
<polygon fill="black" stroke="black" points="1152,-113 1152,-113 1418,-113 1418,-113 1152,-113"/>
<polygon fill="none" stroke="black" points="1152,-64 1152,-138 1418,-138 1418,-64 1152,-64"/>
</g>
<!-- Shape1068799382&#45;&gt;Square1068799382 -->
<g id="edge6" class="edge">
<title>Shape1068799382&#45;&gt;Square1068799382</title>
<path fill="none" stroke="black" d="M1104.46,-325.51C1158.29,-258.87 1220.1,-182.34 1255.65,-138.33"/>
<polygon fill="none" stroke="black" points="1101.5,-323.6 1097.94,-333.58 1106.95,-328 1101.5,-323.6"/>
</g>
<!-- Straight1068799382 -->
<g id="node7" class="node">
<title>Straight1068799382</title>
<polygon fill="#ffffff" stroke="transparent" points="1703.5,-138 1436.5,-138 1436.5,-64 1703.5,-64 1703.5,-138"/>
<text text-anchor="start" x="1442" y="-120.4" font-family="Times New Roman,serif" font-size="14.00">(C)Straight</text>
<text text-anchor="start" x="1442" y="-96.4" font-family="Times New Roman,serif" font-size="14.00">+ descriptor(): String</text>
<text text-anchor="start" x="1441.57" y="-72.4" font-family="Times New Roman,serif" font-size="14.00">+ draw(canvas: Canvas, gc: GraphicsContext)</text>
<polygon fill="black" stroke="black" points="1437,-113 1437,-113 1704,-113 1704,-113 1437,-113"/>
<polygon fill="none" stroke="black" points="1436.5,-64 1436.5,-138 1703.5,-138 1703.5,-64 1436.5,-64"/>
</g>
<!-- Shape1068799382&#45;&gt;Straight1068799382 -->
<g id="edge7" class="edge">
<title>Shape1068799382&#45;&gt;Straight1068799382</title>
<path fill="none" stroke="black" d="M1142.88,-365.93C1261.66,-292.53 1425.2,-191.48 1511.38,-138.22"/>
<polygon fill="none" stroke="black" points="1140.71,-363.15 1134.05,-371.39 1144.39,-369.11 1140.71,-363.15"/>
</g>
<!-- Triangle1068799382 -->
<g id="node8" class="node">
<title>Triangle1068799382</title>
<polygon fill="#ffffff" stroke="transparent" points="1988.5,-138 1721.5,-138 1721.5,-64 1988.5,-64 1988.5,-138"/>
<text text-anchor="start" x="1727" y="-120.4" font-family="Times New Roman,serif" font-size="14.00">(C)Triangle</text>
<text text-anchor="start" x="1727" y="-96.4" font-family="Times New Roman,serif" font-size="14.00">+ descriptor(): String</text>
<text text-anchor="start" x="1726.57" y="-72.4" font-family="Times New Roman,serif" font-size="14.00">+ draw(canvas: Canvas, gc: GraphicsContext)</text>
<polygon fill="black" stroke="black" points="1722,-113 1722,-113 1989,-113 1989,-113 1722,-113"/>
<polygon fill="none" stroke="black" points="1721.5,-64 1721.5,-138 1988.5,-138 1988.5,-64 1721.5,-64"/>
</g>
<!-- Shape1068799382&#45;&gt;Triangle1068799382 -->
<g id="edge8" class="edge">
<title>Shape1068799382&#45;&gt;Triangle1068799382</title>
<path fill="none" stroke="black" d="M1143.78,-399.86C1351.36,-321.73 1712,-186 1712,-186 1712,-186 1754.77,-160.88 1793.53,-138.11"/>
<polygon fill="none" stroke="black" points="1142.44,-396.63 1134.32,-403.42 1144.91,-403.18 1142.44,-396.63"/>
</g>
<!-- HelloController537999332 -->
<g id="node9" class="node">
<title>HelloController537999332</title>
<polygon fill="#ffffff" stroke="transparent" points="2561.5,-647.6 2236.5,-647.6 2236.5,-261.6 2561.5,-261.6 2561.5,-647.6"/>
<text text-anchor="start" x="2242" y="-630" font-family="Times New Roman,serif" font-size="14.00">(C)HelloController</text>
<text text-anchor="start" x="2242" y="-606" font-family="Times New Roman,serif" font-size="14.00">&#45; &#160;&#160;borderCount: TextField [0..1]</text>
<text text-anchor="start" x="2242" y="-582" font-family="Times New Roman,serif" font-size="14.00">&#45; &#160;&#160;borderPicker: ColorPicker [0..1]</text>
<text text-anchor="start" x="2242" y="-558" font-family="Times New Roman,serif" font-size="14.00">&#45; &#160;&#160;canvas: Canvas [0..1]</text>
<text text-anchor="start" x="2242" y="-534" font-family="Times New Roman,serif" font-size="14.00"># &#160;&#160;clearbutton: Button [0..1]</text>
<text text-anchor="start" x="2242" y="-510" font-family="Times New Roman,serif" font-size="14.00">&#45; &#160;&#160;fillPicker: ColorPicker [0..1]</text>
<text text-anchor="start" x="2242" y="-486" font-family="Times New Roman,serif" font-size="14.00">+ &#160;&#160;flowpane: FlowPane [0..1]</text>
<text text-anchor="start" x="2242" y="-462" font-family="Times New Roman,serif" font-size="14.00"># &#160;&#160;gc: GraphicsContext [0..1]</text>
<text text-anchor="start" x="2242" y="-438" font-family="Times New Roman,serif" font-size="14.00">&#45; &#160;&#160;heightCount: TextField [0..1]</text>
<text text-anchor="start" x="2242" y="-414" font-family="Times New Roman,serif" font-size="14.00">&#45; &#160;&#160;info: Label [0..1]</text>
<text text-anchor="start" x="2242" y="-390" font-family="Times New Roman,serif" font-size="14.00"># &#160;&#160;shapeFactory: ShapeFactory [0..1]</text>
<text text-anchor="start" x="2242" y="-366" font-family="Times New Roman,serif" font-size="14.00">&#45; &#160;&#160;txtCount: TextField [0..1]</text>
<text text-anchor="start" x="2242" y="-342" font-family="Times New Roman,serif" font-size="14.00">&#45; &#160;&#160;widthCount: TextField [0..1]</text>
<text text-anchor="start" x="2241.79" y="-318" font-family="Times New Roman,serif" font-size="14.00">+ initialize(url: URL, resourceBundle: ResourceBundle)</text>
<text text-anchor="start" x="2242" y="-294" font-family="Times New Roman,serif" font-size="14.00"># onClear()</text>
<text text-anchor="start" x="2242" y="-270" font-family="Times New Roman,serif" font-size="14.00"># onMouseClicked(event: MouseEvent)</text>
<polygon fill="black" stroke="black" points="2237,-622.6 2237,-622.6 2562,-622.6 2562,-622.6 2237,-622.6"/>
<polygon fill="black" stroke="black" points="2237,-334.6 2237,-334.6 2562,-334.6 2562,-334.6 2237,-334.6"/>
<polygon fill="none" stroke="black" points="2236.5,-261.6 2236.5,-647.6 2561.5,-647.6 2561.5,-261.6 2236.5,-261.6"/>
</g>
<!-- ShapeFactory572770538 -->
<g id="node10" class="node">
<title>ShapeFactory572770538</title>
<polygon fill="#ffffff" stroke="transparent" points="2784.5,-126 2013.5,-126 2013.5,-76 2784.5,-76 2784.5,-126"/>
<text text-anchor="start" x="2019" y="-108.4" font-family="Times New Roman,serif" font-size="14.00">(C)ShapeFactory</text>
<text text-anchor="start" x="2018.78" y="-84.4" font-family="Times New Roman,serif" font-size="14.00">+ factoryMethod(name: String, x: double, y: double, line: int, colorborder: Color, colorfill: Color, width: double, height: double): Shape</text>
<polygon fill="black" stroke="black" points="2014,-101 2014,-101 2785,-101 2785,-101 2014,-101"/>
<polygon fill="none" stroke="black" points="2013.5,-76 2013.5,-126 2784.5,-126 2784.5,-76 2013.5,-76"/>
</g>
<!-- HelloController537999332&#45;&gt;ShapeFactory572770538 -->
<g id="edge1" class="edge">
<title>HelloController537999332&#45;&gt;ShapeFactory572770538</title>
<path fill="none" stroke="black" d="M2399,-261.6C2399,-213.42 2399,-166.88 2399,-136.62"/>
<polygon fill="black" stroke="black" points="2402.5,-136.23 2399,-126.23 2395.5,-136.23 2402.5,-136.23"/>
<text text-anchor="middle" x="2436.32" y="-225" font-family="Times New Roman,serif" font-size="14.00">shapeFactory</text>
<text text-anchor="middle" x="2436.32" y="-208.2" font-family="Times New Roman,serif" font-size="14.00">[0..1]</text>
</g>
</g>
</svg>
